# xmcd CD database file
#
# Track frame offsets:
#	150
#	8670
#	25240
#	45043
#	59928
#	79467
#	101388
#	115307
#	126309
#	147992
#	162162
#	178463
#	190461
#	211167
#	221910
#	235552
#	257427
#	266979
#
# Disc length: 3695 seconds
#
# Revision: 0
# Processed by: cddbd v1.5.2PL0 Copyright (c) Steve Scherf et al.
# Submitted via: CDex 1.70beta2
#
DISCID=0a0e6d12
DTITLE=Inge Brandenburg - I Love Jazz
DYEAR=2019
DGENRE=Jazz
TTITLE0=A Taste of Honey
TTITLE1=Like a Straw
TTITLE2=Cry me a River
TTITLE3=Zeig mir was Liebe ist
TTITLE4=Summertime
TTITLE5=Was weiﬂt Du von Liebe
TTITLE6=Moritat von Meckie Messer
TTITLE7=Stella by Starlight
TTITLE8=What's the Matter, Daddy
TTITLE9=But not for me
TTITLE10=Z‰hle nicht immer die Stunden
TTITLE11=Makin' Whoopee
TTITLE12=St. Louis Blues
TTITLE13=Hello Little Boy
TTITLE14=On the Sunny Side of the Street
TTITLE15=Round Midnight
TTITLE16=Das Risenrad
TTITLE17=I Love Jazz
EXTD=YEAR: 2019
EXTT0=
EXTT1=
EXTT2=
EXTT3=
EXTT4=
EXTT5=
EXTT6=
EXTT7=
EXTT8=
EXTT9=
EXTT10=
EXTT11=
EXTT12=
EXTT13=
EXTT14=
EXTT15=
EXTT16=
EXTT17=
PLAYORDER=
